<svg width="91" height="53" viewBox="0 0 91 53" fill="none" xmlns="http://www.w3.org/2000/svg">
<path d="M4.12 23.48C6.09333 22.6 7.96 22.16 9.72 22.16C12.0133 22.16 13.1867 23.5067 13.24 26.2H9C6.84 26.2 5.09333 26.7333 3.76 27.8C2.45333 28.8667 1.8 30.3733 1.8 32.32C1.8 34.1867 2.37333 35.68 3.52 36.8C4.69333 37.92 6.4 38.48 8.64 38.48C9.6 38.48 10.56 38.2533 11.52 37.8C12.48 37.3467 13.3333 36.76 14.08 36.04L14.76 38H17.76V25.04C17.76 23.7333 17.4 22.56 16.68 21.52C15.96 20.4533 14.9733 19.6133 13.72 19C12.4933 18.3867 11.1333 18.08 9.64 18.08C8.73333 18.08 7.54667 18.2533 6.08 18.6C4.64 18.9467 3.57333 19.3467 2.88 19.8L4.12 23.48ZM5.72 32.32C5.72 31.44 6 30.7067 6.56 30.12C7.14667 29.5067 7.93333 29.2 8.92 29.2H13.28V32.68C12.6133 33.3733 11.8667 33.92 11.04 34.32C10.2133 34.72 9.38667 34.92 8.56 34.92C7.68 34.92 6.98667 34.6667 6.48 34.16C5.97333 33.6267 5.72 33.0133 5.72 32.32ZM26.7219 25.64C27.7885 24.68 28.9619 23.8667 30.2419 23.2C31.5219 22.5333 32.6419 22.2 33.6019 22.2L32.6819 18.6C31.7485 18.6 30.6552 18.9333 29.4019 19.6C28.1752 20.2667 27.0819 21 26.1219 21.8L24.6419 18.6H22.2419V38H26.7219V25.64ZM44.9844 18.08C46.9577 18.08 48.6777 18.5067 50.1444 19.36C51.611 20.1867 52.731 21.3733 53.5044 22.92C54.3044 24.4667 54.7044 26.28 54.7044 28.36C54.7044 30.36 54.3044 32.1333 53.5044 33.68C52.7044 35.2 51.5577 36.3867 50.0644 37.24C48.5977 38.0933 46.8777 38.52 44.9044 38.52C44.1844 38.52 43.371 38.36 42.4644 38.04C41.5844 37.72 40.7577 37.2933 39.9844 36.76L39.0644 38H36.7044V10.2L41.1844 9.76V19.12C42.491 18.4267 43.7577 18.08 44.9844 18.08ZM44.9044 34.64C46.5044 34.64 47.7577 34.0533 48.6644 32.88C49.5977 31.7067 50.0644 30.2 50.0644 28.36C50.0644 26.44 49.611 24.8933 48.7044 23.72C47.7977 22.52 46.531 21.92 44.9044 21.92C44.211 21.92 43.5577 22.0267 42.9444 22.24C42.3577 22.4533 41.771 22.7733 41.1844 23.2V33.44C42.2777 34.24 43.5177 34.64 44.9044 34.64ZM75.0613 28.16C75.0613 25.2267 74.3279 22.8133 72.8613 20.92C71.3946 19.0267 69.2346 18.08 66.3813 18.08C64.4346 18.08 62.7413 18.5067 61.3013 19.36C59.8879 20.2133 58.7946 21.4133 58.0213 22.96C57.2746 24.48 56.9013 26.2533 56.9013 28.28C56.9013 31.4267 57.8213 33.92 59.6613 35.76C61.5279 37.5733 64.2213 38.48 67.7413 38.48C70.3546 38.48 72.7413 37.7333 74.9013 36.24L73.5413 32.96C72.3946 33.5467 71.4079 33.9867 70.5813 34.28C69.7813 34.5467 68.8613 34.68 67.8213 34.68C64.0879 34.68 62.0213 32.9467 61.6213 29.48H75.0613V28.16ZM61.7013 26.48C61.8879 25.04 62.3679 23.92 63.1413 23.12C63.9413 22.32 64.9813 21.92 66.2613 21.92C67.5146 21.92 68.5146 22.3067 69.2613 23.08C70.0079 23.8533 70.5013 24.9867 70.7413 26.48H61.7013ZM82.9328 25.64C83.9995 24.68 85.1728 23.8667 86.4528 23.2C87.7328 22.5333 88.8528 22.2 89.8128 22.2L88.8928 18.6C87.9595 18.6 86.8661 18.9333 85.6128 19.6C84.3861 20.2667 83.2928 21 82.3328 21.8L80.8528 18.6H78.4528V38H82.9328V25.64Z" fill="#99BAED"/>
</svg>
